<svg xmlns="http://www.w3.org/2000/svg" xmlns:xlink="http://www.w3.org/1999/xlink" width="486" zoomAndPan="magnify" viewBox="0 0 364.5 101.249998" height="135" preserveAspectRatio="xMidYMid meet" version="1.0"><defs><g/><clipPath id="21a053c66f"><path d="M 11.15625 18.914062 L 63.339844 18.914062 L 63.339844 71.097656 L 11.15625 71.097656 Z M 11.15625 18.914062 " clip-rule="nonzero"/></clipPath><clipPath id="17c7100427"><path d="M 25 49 L 63.339844 49 L 63.339844 71.097656 L 25 71.097656 Z M 25 49 " clip-rule="nonzero"/></clipPath></defs><g fill="#002f6c" fill-opacity="1"><g transform="translate(72.595048, 66.485443)"><g><path d="M 23 -44.546875 C 26.195312 -44.546875 28.925781 -43.960938 31.1875 -42.796875 C 33.445312 -41.628906 35.15625 -39.992188 36.3125 -37.890625 C 37.476562 -35.785156 38.0625 -33.34375 38.0625 -30.5625 C 38.0625 -27.78125 37.476562 -25.34375 36.3125 -23.25 C 35.15625 -21.15625 33.445312 -19.523438 31.1875 -18.359375 C 28.925781 -17.191406 26.195312 -16.609375 23 -16.609375 L 14.59375 -16.609375 L 14.59375 0 L 5.796875 0 L 5.796875 -44.546875 Z M 21.84375 -23.578125 C 26.738281 -23.578125 29.1875 -25.90625 29.1875 -30.5625 C 29.1875 -35.238281 26.738281 -37.578125 21.84375 -37.578125 L 14.59375 -37.578125 L 14.59375 -23.578125 Z M 21.84375 -23.578125 "/></g></g></g><g fill="#002f6c" fill-opacity="1"><g transform="translate(105.875616, 66.485443)"><g><path d="M 5.796875 0 L 5.796875 -44.546875 L 23.671875 -44.546875 C 28.285156 -44.546875 31.765625 -43.484375 34.109375 -41.359375 C 36.453125 -39.242188 37.625 -36.316406 37.625 -32.578125 C 37.625 -29.867188 36.9375 -27.648438 35.5625 -25.921875 C 34.195312 -24.203125 32.15625 -22.882812 29.4375 -21.96875 L 29.4375 -21.328125 C 30.832031 -20.722656 31.960938 -19.820312 32.828125 -18.625 C 33.691406 -17.425781 34.507812 -15.644531 35.28125 -13.28125 L 39.734375 0 L 30.6875 0 L 26.328125 -13.3125 C 25.878906 -14.65625 25.375 -15.695312 24.8125 -16.4375 C 24.257812 -17.175781 23.550781 -17.710938 22.6875 -18.046875 C 21.820312 -18.390625 20.695312 -18.5625 19.3125 -18.5625 L 14.59375 -18.5625 L 14.59375 0 Z M 22.609375 -25.53125 C 26.878906 -25.53125 29.015625 -27.523438 29.015625 -31.515625 C 29.015625 -35.554688 26.878906 -37.578125 22.609375 -37.578125 L 14.59375 -37.578125 L 14.59375 -25.53125 Z M 22.609375 -25.53125 "/></g></g></g><g fill="#002f6c" fill-opacity="1"><g transform="translate(140.100727, 66.485443)"><g><path d="M 24.28125 0.640625 C 20.195312 0.640625 16.597656 -0.191406 13.484375 -1.859375 C 10.367188 -3.523438 7.925781 -6.066406 6.15625 -9.484375 C 4.382812 -12.910156 3.5 -17.175781 3.5 -22.28125 C 3.5 -27.375 4.382812 -31.628906 6.15625 -35.046875 C 7.925781 -38.472656 10.367188 -41.019531 13.484375 -42.6875 C 16.597656 -44.351562 20.195312 -45.1875 24.28125 -45.1875 C 28.363281 -45.1875 31.957031 -44.359375 35.0625 -42.703125 C 38.175781 -41.046875 40.609375 -38.5 42.359375 -35.0625 C 44.117188 -31.632812 45 -27.375 45 -22.28125 C 45 -17.175781 44.117188 -12.90625 42.359375 -9.46875 C 40.609375 -6.039062 38.175781 -3.5 35.0625 -1.84375 C 31.957031 -0.1875 28.363281 0.640625 24.28125 0.640625 Z M 24.28125 -7.015625 C 28.0625 -7.015625 30.945312 -8.226562 32.9375 -10.65625 C 34.925781 -13.082031 35.921875 -16.957031 35.921875 -22.28125 C 35.921875 -27.601562 34.925781 -31.484375 32.9375 -33.921875 C 30.945312 -36.359375 28.0625 -37.578125 24.28125 -37.578125 C 20.488281 -37.578125 17.585938 -36.359375 15.578125 -33.921875 C 13.578125 -31.484375 12.578125 -27.601562 12.578125 -22.28125 C 12.578125 -16.957031 13.578125 -13.082031 15.578125 -10.65625 C 17.585938 -8.226562 20.488281 -7.015625 24.28125 -7.015625 Z M 24.28125 -7.015625 "/></g></g></g><g fill="#002f6c" fill-opacity="1"><g transform="translate(181.211857, 66.485443)"><g><path d="M 19.75 0.640625 C 16.65625 0.640625 13.90625 0.257812 11.5 -0.5 C 9.09375 -1.257812 7.085938 -2.257812 5.484375 -3.5 C 3.878906 -4.738281 2.648438 -6.101562 1.796875 -7.59375 L 6.640625 -13.5 L 7.40625 -13.5 C 8.75 -11.507812 10.453125 -9.925781 12.515625 -8.75 C 14.578125 -7.570312 16.988281 -6.984375 19.75 -6.984375 C 22.101562 -6.984375 23.878906 -7.476562 25.078125 -8.46875 C 26.273438 -9.46875 26.875 -10.835938 26.875 -12.578125 C 26.875 -13.640625 26.679688 -14.523438 26.296875 -15.234375 C 25.910156 -15.941406 25.269531 -16.550781 24.375 -17.0625 C 23.476562 -17.570312 22.269531 -18.007812 20.75 -18.375 L 15.015625 -19.6875 C 11.015625 -20.601562 8.035156 -22.117188 6.078125 -24.234375 C 4.117188 -26.359375 3.140625 -29.117188 3.140625 -32.515625 C 3.140625 -35.035156 3.769531 -37.25 5.03125 -39.15625 C 6.289062 -41.0625 8.125 -42.539062 10.53125 -43.59375 C 12.9375 -44.65625 15.816406 -45.1875 19.171875 -45.1875 C 22.597656 -45.1875 25.535156 -44.734375 27.984375 -43.828125 C 30.429688 -42.929688 32.5 -41.546875 34.1875 -39.671875 L 29.828125 -33.703125 L 29.0625 -33.703125 C 27.8125 -35.023438 26.375 -36.015625 24.75 -36.671875 C 23.125 -37.328125 21.265625 -37.65625 19.171875 -37.65625 C 16.753906 -37.65625 14.914062 -37.226562 13.65625 -36.375 C 12.394531 -35.53125 11.765625 -34.351562 11.765625 -32.84375 C 11.765625 -31.445312 12.203125 -30.332031 13.078125 -29.5 C 13.960938 -28.664062 15.492188 -28.015625 17.671875 -27.546875 L 23.53125 -26.328125 C 27.851562 -25.410156 30.988281 -23.859375 32.9375 -21.671875 C 34.882812 -19.492188 35.859375 -16.648438 35.859375 -13.140625 C 35.859375 -10.347656 35.257812 -7.921875 34.0625 -5.859375 C 32.863281 -3.796875 31.054688 -2.195312 28.640625 -1.0625 C 26.222656 0.0703125 23.257812 0.640625 19.75 0.640625 Z M 19.75 0.640625 "/></g></g></g><g fill="#002f6c" fill-opacity="1"><g transform="translate(212.054892, 66.485443)"><g><path d="M 23 -44.546875 C 26.195312 -44.546875 28.925781 -43.960938 31.1875 -42.796875 C 33.445312 -41.628906 35.15625 -39.992188 36.3125 -37.890625 C 37.476562 -35.785156 38.0625 -33.34375 38.0625 -30.5625 C 38.0625 -27.78125 37.476562 -25.34375 36.3125 -23.25 C 35.15625 -21.15625 33.445312 -19.523438 31.1875 -18.359375 C 28.925781 -17.191406 26.195312 -16.609375 23 -16.609375 L 14.59375 -16.609375 L 14.59375 0 L 5.796875 0 L 5.796875 -44.546875 Z M 21.84375 -23.578125 C 26.738281 -23.578125 29.1875 -25.90625 29.1875 -30.5625 C 29.1875 -35.238281 26.738281 -37.578125 21.84375 -37.578125 L 14.59375 -37.578125 L 14.59375 -23.578125 Z M 21.84375 -23.578125 "/></g></g></g><g fill="#002f6c" fill-opacity="1"><g transform="translate(245.335455, 66.485443)"><g><path d="M 14.59375 -19.5625 L 14.59375 -7.375 L 35.859375 -7.375 L 35.859375 0 L 5.796875 0 L 5.796875 -44.546875 L 35.375 -44.546875 L 35.375 -37.171875 L 14.59375 -37.171875 L 14.59375 -26.75 L 32.75 -26.75 L 32.75 -19.5625 Z M 14.59375 -19.5625 "/></g></g></g><g fill="#002f6c" fill-opacity="1"><g transform="translate(276.208959, 66.485443)"><g><path d="M 5.796875 0 L 5.796875 -44.546875 L 23.671875 -44.546875 C 28.285156 -44.546875 31.765625 -43.484375 34.109375 -41.359375 C 36.453125 -39.242188 37.625 -36.316406 37.625 -32.578125 C 37.625 -29.867188 36.9375 -27.648438 35.5625 -25.921875 C 34.195312 -24.203125 32.15625 -22.882812 29.4375 -21.96875 L 29.4375 -21.328125 C 30.832031 -20.722656 31.960938 -19.820312 32.828125 -18.625 C 33.691406 -17.425781 34.507812 -15.644531 35.28125 -13.28125 L 39.734375 0 L 30.6875 0 L 26.328125 -13.3125 C 25.878906 -14.65625 25.375 -15.695312 24.8125 -16.4375 C 24.257812 -17.175781 23.550781 -17.710938 22.6875 -18.046875 C 21.820312 -18.390625 20.695312 -18.5625 19.3125 -18.5625 L 14.59375 -18.5625 L 14.59375 0 Z M 22.609375 -25.53125 C 26.878906 -25.53125 29.015625 -27.523438 29.015625 -31.515625 C 29.015625 -35.554688 26.878906 -37.578125 22.609375 -37.578125 L 14.59375 -37.578125 L 14.59375 -25.53125 Z M 22.609375 -25.53125 "/></g></g></g><g fill="#002f6c" fill-opacity="1"><g transform="translate(310.434063, 66.485443)"><g><path d="M 42.75 0 L 33.484375 0 L 30.140625 -10.265625 L 13.078125 -10.265625 L 9.71875 0 L 0.671875 0 L 16.0625 -44.546875 L 27.359375 -44.546875 Z M 21.171875 -35.25 L 15.453125 -17.671875 L 27.703125 -17.671875 L 21.9375 -35.25 Z M 21.171875 -35.25 "/></g></g></g><g clip-path="url(#21a053c66f)"><path fill="#002f6c" d="M 11.15625 18.914062 L 11.15625 71.097656 L 18.199219 71.097656 L 18.199219 25.953125 L 56.300781 25.953125 L 56.300781 40.035156 L 63.339844 40.035156 L 63.339844 18.914062 Z M 11.15625 18.914062 " fill-opacity="1" fill-rule="nonzero"/></g><path fill="#0061a9" d="M 25.238281 32.992188 L 49.261719 32.992188 L 49.261719 57.015625 L 25.238281 57.015625 Z M 25.238281 32.992188 " fill-opacity="1" fill-rule="nonzero"/><g clip-path="url(#17c7100427)"><path fill="#0061a9" d="M 63.339844 49.976562 L 63.339844 71.097656 L 25.238281 71.097656 L 25.238281 64.054688 L 56.300781 64.054688 L 56.300781 49.976562 Z M 63.339844 49.976562 " fill-opacity="1" fill-rule="nonzero"/></g><g fill="#002f6c" fill-opacity="1"><g transform="translate(251.293951, 88.800981)"><g><path d="M 7.171875 0.21875 C 5.878906 0.21875 4.765625 -0.0625 3.828125 -0.625 C 2.890625 -1.195312 2.164062 -1.992188 1.65625 -3.015625 C 1.144531 -4.035156 0.890625 -5.222656 0.890625 -6.578125 C 0.890625 -7.921875 1.144531 -9.101562 1.65625 -10.125 C 2.164062 -11.144531 2.890625 -11.941406 3.828125 -12.515625 C 4.765625 -13.097656 5.878906 -13.390625 7.171875 -13.390625 C 8.671875 -13.390625 9.894531 -13.03125 10.84375 -12.3125 C 11.789062 -11.59375 12.394531 -10.585938 12.65625 -9.296875 L 10.90625 -9.296875 C 10.707031 -10.109375 10.296875 -10.757812 9.671875 -11.25 C 9.054688 -11.75 8.222656 -12 7.171875 -12 C 6.222656 -12 5.398438 -11.78125 4.703125 -11.34375 C 4.003906 -10.914062 3.460938 -10.296875 3.078125 -9.484375 C 2.691406 -8.679688 2.5 -7.710938 2.5 -6.578125 C 2.5 -5.453125 2.691406 -4.484375 3.078125 -3.671875 C 3.460938 -2.867188 4.003906 -2.25 4.703125 -1.8125 C 5.398438 -1.382812 6.222656 -1.171875 7.171875 -1.171875 C 8.222656 -1.171875 9.054688 -1.410156 9.671875 -1.890625 C 10.296875 -2.367188 10.707031 -3.007812 10.90625 -3.8125 L 12.65625 -3.8125 C 12.394531 -2.550781 11.789062 -1.5625 10.84375 -0.84375 C 9.894531 -0.132812 8.671875 0.21875 7.171875 0.21875 Z M 7.171875 0.21875 "/></g></g></g><g fill="#002f6c" fill-opacity="1"><g transform="translate(266.298012, 88.800981)"><g><path d="M 1.296875 0 L 1.296875 -13.546875 L 2.875 -13.546875 L 2.875 0 Z M 1.296875 0 "/></g></g></g><g fill="#002f6c" fill-opacity="1"><g transform="translate(271.939309, 88.800981)"><g><path d="M 5.546875 0.21875 C 4.671875 0.21875 3.878906 0.0195312 3.171875 -0.375 C 2.472656 -0.78125 1.921875 -1.347656 1.515625 -2.078125 C 1.109375 -2.804688 0.90625 -3.671875 0.90625 -4.671875 C 0.90625 -5.660156 1.109375 -6.519531 1.515625 -7.25 C 1.929688 -7.988281 2.492188 -8.554688 3.203125 -8.953125 C 3.910156 -9.359375 4.707031 -9.5625 5.59375 -9.5625 C 6.46875 -9.5625 7.253906 -9.359375 7.953125 -8.953125 C 8.660156 -8.554688 9.21875 -7.988281 9.625 -7.25 C 10.03125 -6.519531 10.234375 -5.660156 10.234375 -4.671875 C 10.234375 -3.671875 10.023438 -2.804688 9.609375 -2.078125 C 9.203125 -1.347656 8.640625 -0.78125 7.921875 -0.375 C 7.210938 0.0195312 6.421875 0.21875 5.546875 0.21875 Z M 5.546875 -1.125 C 6.085938 -1.125 6.585938 -1.253906 7.046875 -1.515625 C 7.515625 -1.785156 7.890625 -2.179688 8.171875 -2.703125 C 8.460938 -3.234375 8.609375 -3.890625 8.609375 -4.671875 C 8.609375 -5.441406 8.46875 -6.085938 8.1875 -6.609375 C 7.90625 -7.140625 7.53125 -7.535156 7.0625 -7.796875 C 6.601562 -8.066406 6.113281 -8.203125 5.59375 -8.203125 C 5.050781 -8.203125 4.546875 -8.066406 4.078125 -7.796875 C 3.617188 -7.535156 3.242188 -7.140625 2.953125 -6.609375 C 2.660156 -6.085938 2.515625 -5.441406 2.515625 -4.671875 C 2.515625 -3.890625 2.660156 -3.234375 2.953125 -2.703125 C 3.242188 -2.179688 3.617188 -1.785156 4.078125 -1.515625 C 4.535156 -1.253906 5.023438 -1.125 5.546875 -1.125 Z M 5.546875 -1.125 "/></g></g></g><g fill="#002f6c" fill-opacity="1"><g transform="translate(284.536877, 88.800981)"><g><path d="M 4.703125 0.21875 C 3.597656 0.21875 2.71875 -0.113281 2.0625 -0.78125 C 1.414062 -1.445312 1.09375 -2.476562 1.09375 -3.875 L 1.09375 -9.328125 L 2.671875 -9.328125 L 2.671875 -4.046875 C 2.671875 -2.097656 3.46875 -1.125 5.0625 -1.125 C 5.875 -1.125 6.546875 -1.414062 7.078125 -2 C 7.609375 -2.582031 7.875 -3.414062 7.875 -4.5 L 7.875 -9.328125 L 9.46875 -9.328125 L 9.46875 0 L 8.03125 0 L 7.921875 -1.671875 C 7.628906 -1.085938 7.195312 -0.625 6.625 -0.28125 C 6.0625 0.0507812 5.421875 0.21875 4.703125 0.21875 Z M 4.703125 0.21875 "/></g></g></g><g fill="#002f6c" fill-opacity="1"><g transform="translate(296.758427, 88.800981)"><g><path d="M 5.53125 0.21875 C 4.601562 0.21875 3.789062 0.0078125 3.09375 -0.40625 C 2.394531 -0.832031 1.851562 -1.414062 1.46875 -2.15625 C 1.09375 -2.894531 0.90625 -3.738281 0.90625 -4.6875 C 0.90625 -5.625 1.097656 -6.457031 1.484375 -7.1875 C 1.867188 -7.925781 2.40625 -8.503906 3.09375 -8.921875 C 3.789062 -9.347656 4.609375 -9.5625 5.546875 -9.5625 C 6.316406 -9.5625 6.992188 -9.398438 7.578125 -9.078125 C 8.171875 -8.765625 8.628906 -8.328125 8.953125 -7.765625 L 8.953125 -13.546875 L 10.53125 -13.546875 L 10.53125 0 L 9.109375 0 L 8.953125 -1.546875 C 8.648438 -1.085938 8.21875 -0.675781 7.65625 -0.3125 C 7.09375 0.0390625 6.382812 0.21875 5.53125 0.21875 Z M 5.703125 -1.140625 C 6.328125 -1.140625 6.878906 -1.285156 7.359375 -1.578125 C 7.847656 -1.878906 8.222656 -2.289062 8.484375 -2.8125 C 8.753906 -3.34375 8.890625 -3.960938 8.890625 -4.671875 C 8.890625 -5.367188 8.753906 -5.976562 8.484375 -6.5 C 8.222656 -7.03125 7.847656 -7.441406 7.359375 -7.734375 C 6.878906 -8.035156 6.328125 -8.1875 5.703125 -8.1875 C 5.085938 -8.1875 4.535156 -8.035156 4.046875 -7.734375 C 3.566406 -7.441406 3.191406 -7.03125 2.921875 -6.5 C 2.648438 -5.976562 2.515625 -5.367188 2.515625 -4.671875 C 2.515625 -3.960938 2.648438 -3.34375 2.921875 -2.8125 C 3.191406 -2.289062 3.566406 -1.878906 4.046875 -1.578125 C 4.535156 -1.285156 5.085938 -1.140625 5.703125 -1.140625 Z M 5.703125 -1.140625 "/></g></g></g><g fill="#002f6c" fill-opacity="1"><g transform="translate(310.032814, 88.800981)"><g/></g></g><g fill="#002f6c" fill-opacity="1"><g transform="translate(316.482544, 88.800981)"><g><path d="M 1.390625 0 L 1.390625 -13.171875 L 9.53125 -13.171875 L 9.53125 -11.875 L 2.96875 -11.875 L 2.96875 -7.28125 L 8.96875 -7.28125 L 8.96875 -6 L 2.96875 -6 L 2.96875 -1.296875 L 9.53125 -1.296875 L 9.53125 0 Z M 1.390625 0 "/></g></g></g><g fill="#002f6c" fill-opacity="1"><g transform="translate(328.553684, 88.800981)"><g><path d="M 1.390625 0 L 1.390625 -13.171875 L 5.640625 -13.171875 C 6.671875 -13.171875 7.507812 -13 8.15625 -12.65625 C 8.8125 -12.320312 9.296875 -11.859375 9.609375 -11.265625 C 9.921875 -10.679688 10.078125 -10.03125 10.078125 -9.3125 C 10.078125 -8.488281 9.851562 -7.742188 9.40625 -7.078125 C 8.96875 -6.410156 8.28125 -5.9375 7.34375 -5.65625 L 10.21875 0 L 8.359375 0 L 5.6875 -5.4375 L 2.96875 -5.4375 L 2.96875 0 Z M 2.96875 -6.671875 L 5.53125 -6.671875 C 6.539062 -6.671875 7.28125 -6.914062 7.75 -7.40625 C 8.21875 -7.894531 8.453125 -8.523438 8.453125 -9.296875 C 8.453125 -10.066406 8.222656 -10.679688 7.765625 -11.140625 C 7.304688 -11.597656 6.554688 -11.828125 5.515625 -11.828125 L 2.96875 -11.828125 Z M 2.96875 -6.671875 "/></g></g></g><g fill="#002f6c" fill-opacity="1"><g transform="translate(341.170042, 88.800981)"><g><path d="M 1.390625 0 L 1.390625 -13.171875 L 5.71875 -13.171875 C 6.75 -13.171875 7.59375 -13 8.25 -12.65625 C 8.914062 -12.320312 9.410156 -11.863281 9.734375 -11.28125 C 10.054688 -10.707031 10.21875 -10.054688 10.21875 -9.328125 C 10.21875 -8.617188 10.0625 -7.972656 9.75 -7.390625 C 9.4375 -6.816406 8.945312 -6.359375 8.28125 -6.015625 C 7.613281 -5.671875 6.757812 -5.5 5.71875 -5.5 L 2.96875 -5.5 L 2.96875 0 Z M 2.96875 -6.828125 L 5.6875 -6.828125 C 6.738281 -6.828125 7.484375 -7.050781 7.921875 -7.5 C 8.367188 -7.945312 8.59375 -8.554688 8.59375 -9.328125 C 8.59375 -10.117188 8.367188 -10.738281 7.921875 -11.1875 C 7.484375 -11.632812 6.738281 -11.859375 5.6875 -11.859375 L 2.96875 -11.859375 Z M 2.96875 -6.828125 "/></g></g></g><g fill="#002f6c" fill-opacity="1"><g transform="translate(353.521532, 88.800981)"><g/></g></g></svg>